<svg id="a0b470e9-f8a3-4ec5-8593-e45c4fe5665c" data-name="Layer 2" xmlns="http://www.w3.org/2000/svg" width="293.5476mm" height="255.5091mm" viewBox="0 0 832.1035 724.2776"><defs><style>.fbe51bb0-6dad-48e4-8b16-c3d90eb5134f{fill:#2d5f68;}.e6866924-5bea-40b6-ab3e-981ec632f330{fill:#22484f;}.ef82d006-9848-4623-b0c7-84e1247a6930{fill:#387782;}.be7e48b0-4295-407a-87b5-fdd27ae0321e{fill:#326b75;}</style></defs><path class="fbe51bb0-6dad-48e4-8b16-c3d90eb5134f" d="M539.604,484.476s54.99,1.0165,81.2027,0,84.2284-6.6072,84.2284-6.6072,4.4331,14.8771,7.5645,22.3629c6.6379,15.8682,14.5849,36.34,14.5849,36.34s-60.5313-5.8449-108.324-2.51c-65.8332,4.5944-92.301,13.0556-92.301,13.0556s4.1745-13.3415,7.6124-29.6054S539.604,484.476,539.604,484.476Z" transform="translate(-9.1451 -54.1374)"/><path class="e6866924-5bea-40b6-ab3e-981ec632f330" d="M825.41,672.5594H733.5692s-20.7779-1.5708-26.303.4551-12.679,7.98-31.4044,11.864c-23.0829,4.7885-150.883-7.49-240.0916-9.4542s-348.032,3.42-348.032,3.42l-65.32,26.0472s-13.7516,6.2619-13.26,14.12,6.8757,13.506,6.8757,13.506l31.4321,31.8,74.0373-38.5534S459.2752,775.86,555.0448,778.07s147.2767-6.9132,147.2767-6.9132,22.9342-4.3749,28.0553-8.5573c4.168-3.4039,19.8944-17.61,19.8944-17.61s-113.8222,6.1916-152.8668,5.0865-459.8783-41.07-459.8783-41.07,444.34,27.81,490.7238,26.8278,137.6722-8.4106,137.6722-8.4106a350.0808,350.0808,0,0,0,28.5467-24.6791C807.3609,690.0353,825.41,672.5594,825.41,672.5594Z" transform="translate(-9.1451 -54.1374)"/><path class="fbe51bb0-6dad-48e4-8b16-c3d90eb5134f" d="M524.2266,556.6946s55.1289-15.3477,99.8214-17.3122,103.1365-2.4557,103.1365-2.4557,30.9087,48.9354,52.7638,70.7905a295.5208,295.5208,0,0,0,61.3,46.5887H737.7437s-22.2848-.3683-36.2819,4.0518-18.97,9.9453-31.4935,12.8921-159.1294-5.8936-159.1294-5.8936-.1566-15.0816,3.3052-46.4923C518.76,576.9806,524.2266,556.6946,524.2266,556.6946Z" transform="translate(-9.1451 -54.1374)"/><path class="ef82d006-9848-4623-b0c7-84e1247a6930" d="M363.1083,546.0375s18.032-89.02,68.1727-206.298c28.9764-67.7754,71.2133-125.9738,71.2133-125.9738s-96.0152,40.2723-146.3557,87.666c-31.5588,29.7115-58.2164,58.062-90.6127,100.4353-30.4939,39.8849-64.5525,84.1054-64.5525,84.1054s29.9281,20.2589,80.9775,39.8668A347.9072,347.9072,0,0,0,363.1083,546.0375Z" transform="translate(-9.1451 -54.1374)"/><path class="ef82d006-9848-4623-b0c7-84e1247a6930" d="M140.5342,607.1578s-2.7568,12.02,92.3318,37.3256c60.9,16.2071,104.3029,16.8211,104.3029,16.8211s6.2619-18.97,14.1813-50.4633c7.8812-31.3417,9.5769-48.99,9.5769-48.99s-37.9317-3.4469-86.8912-23.5855c-62.6567-25.7727-79.9689-38.1122-79.9689-38.1122s-13.9971,23.6685-29.222,52.3214A439.5573,439.5573,0,0,0,140.5342,607.1578Z" transform="translate(-9.1451 -54.1374)"/><path class="fbe51bb0-6dad-48e4-8b16-c3d90eb5134f" d="M373.0825,562.5055s-2.4556,11.3205-10.3136,48.9575-13.8744,50.1828-13.8744,50.1828,42.4174-.97,78.703.5018c34.4821,1.3983,64.092,2.472,64.092,2.472a316.6354,316.6354,0,0,0,9.577-51.6621c2.9467-29.106,5.4023-53.6845,5.4023-53.6845s-36.2051,5.52-70.8986,5.52S373.0825,562.5055,373.0825,562.5055Z" transform="translate(-9.1451 -54.1374)"/><path class="be7e48b0-4295-407a-87b5-fdd27ae0321e" d="M508.3316,549.1605s11.9575-146.7175,47.81-249.7293,78.58-216.919,78.58-216.919-26.5208,13.8669-58.444,46.5534-74.16,83.6971-119.8348,188.1946a1376.98,1376.98,0,0,0-52.7961,130.4981c-13.5852,39.6538-27.0006,99.1462-27.0006,99.1462s23.4322,2.7517,56.088,5.05C462.4316,554.0454,508.3316,549.1605,508.3316,549.1605Z" transform="translate(-9.1451 -54.1374)"/><path class="fbe51bb0-6dad-48e4-8b16-c3d90eb5134f" d="M371.9961,557.0587" transform="translate(-9.1451 -54.1374)"/><path class="fbe51bb0-6dad-48e4-8b16-c3d90eb5134f" d="M370.0975,556.9627" transform="translate(-9.1451 -54.1374)"/><path class="be7e48b0-4295-407a-87b5-fdd27ae0321e" d="M727.1845,461.7112s-67.8809-102.854-80.3534-205.467,26.888-202.1068,26.888-202.1068-4.6772-.0181-13.5119,5.2812-10.3938,7.2262-10.3938,7.2262S579.0518,293.16,569.533,327.707c-14.7338,53.4744-26.1682,135.0566-28.7309,144.3618,0,0,49.3653.6183,77.3524,0C672.67,470.8645,727.1845,461.7112,727.1845,461.7112Z" transform="translate(-9.1451 -54.1374)"/></svg>